:SAMPLES-PER-SECOND 30
:FULLY-SPECIFIED
:DEGREES
328
root  -9.86071 34.8871 -17.012 -170.107 0.0550079 179.862
RightUpLeg  -7.1243 -15.8609 4.1897
RightLeg  0.27363 0.641544 -0.038154
RightFoot  4.55372 0.0061832 0.184461
RightToes  -20.1533 -0.0803443 -0.177357
Spine  -3.08348 1.19823 -1.91552
Spine1  -6.21513 2.35971 -3.06424
HEad  -64.4399 -4.0401 12.5894
LeftShoulder1  -1.94126e-019 -3.10601e-018 -2.51263e-017
LeftArm  -9.96837 24.7395 -79.226
LeftForeArm  33.7463 -13.6431 -2.30566
LeftHand  -0.381355 -0.905897 7.16111
RightShoulder  -4.96962e-017 0 -2.36833e-017
RightArm  -84.8617 20.4307 12.6116
RightForeArm  162.383 44.6837 169.435
RightHand  -0.179603 -2.40495 -6.61249
LeftUpLeg  -8.79808 -3.3193 -2.75102
LeftLeg  4.404 11.9326 0.14872
LeftFoot  3.38097 -0.0204819 0.855539
LeftToes  -11.0467 1.48347e-006 1.01831e-007
329
root  -9.84025 34.8861 -17.0064 -170.104 -0.0664215 179.775
RightUpLeg  -7.03375 -15.5209 4.13631
RightLeg  0.110034 0.149015 -0.00927689
RightFoot  4.51832 0.00880154 0.146581
RightToes  -19.8284 -0.0790584 -0.175441
Spine  -3.08762 1.10861 -1.85432
Spine1  -6.21745 2.16655 -3.00793
HEad  -65.3434 -4.46315 11.979
LeftShoulder1  -1.94126e-019 -3.10601e-018 -2.51263e-017
LeftArm  -10.3026 24.5249 -79.3622
LeftForeArm  34.0509 -12.7063 -2.13932
LeftHand  -0.384347 -0.961208 7.15823
RightShoulder  -4.96962e-017 0 -2.36833e-017
RightArm  -85.325 19.5324 11.1523
RightForeArm  162.012 44.828 169.362
RightHand  -0.181095 -2.31466 -6.48835
LeftUpLeg  -7.82272 -5.11823 -2.76063
LeftLeg  2.36084 13.7219 -0.313723
LeftFoot  4.27389 -0.0400755 1.18353
LeftToes  -10.4837 1.48347e-006 1.01831e-007
330
root  -9.80086 34.8866 -17.0154 -170.03 -0.0506287 179.809
RightUpLeg  -7.06231 -15.1083 4.24486
RightLeg  0.0568401 -0.285648 0.0181317
RightFoot  4.45955 0.0109933 0.114694
RightToes  -19.3056 -0.0776683 -0.171216
Spine  -3.12198 1.04247 -1.77849
Spine1  -6.27882 2.02428 -2.91331
HEad  -65.61 -4.49293 12.121
LeftShoulder1  -1.94126e-019 -3.10601e-018 -2.51263e-017
LeftArm  -10.3332 24.5581 -79.2829
LeftForeArm  34.064 -12.7879 -2.17398
LeftHand  -0.380639 -0.899821 7.20211
RightShoulder  -4.96962e-017 0 -2.36833e-017
RightArm  -85.3414 18.9665 10.5872
RightForeArm  162.292 44.5304 169.482
RightHand  -0.180466 -2.31283 -6.53122
LeftUpLeg  -7.33091 -5.95639 -2.58331
LeftLeg  1.23764 14.451 -0.610464
LeftFoot  4.85855 -0.0520562 1.39272
LeftToes  -10.8926 1.48347e-006 1.01831e-007
331
root  -9.76706 34.8838 -17.019 -170.012 0.0691681 179.834
RightUpLeg  -7.13493 -15.0281 4.31513
RightLeg  0.175463 -0.211181 0.0130052
RightFoot  4.37094 0.010494 0.121166
RightToes  -19.1545 -0.0762685 -0.168619
Spine  -3.12834 0.979535 -1.74943
Spine1  -6.28706 1.89731 -2.86652
HEad  -65.8344 -4.34057 12.2403
LeftShoulder1  -1.94126e-019 -3.10601e-018 -2.51263e-017
LeftArm  -9.98089 24.7959 -78.9694
LeftForeArm  33.6237 -13.6317 -2.32679
LeftHand  -0.374089 -0.73865 7.24362
RightShoulder  -4.96962e-017 0 -2.36833e-017
RightArm  -85.035 18.6779 10.6428
RightForeArm  162.753 44.0469 169.673
RightHand  -0.180922 -2.33462 -6.54083
LeftUpLeg  -7.05496 -4.94243 -2.50886
LeftLeg  0.672838 13.3985 -0.697944
LeftFoot  5.21198 -0.0500335 1.38368
LeftToes  -11.7268 1.48347e-006 1.01831e-007
332
root  -9.75338 34.8773 -17.0114 -170.085 0.174927 179.805
RightUpLeg  -7.08423 -14.8094 4.27514
RightLeg  0.195965 -0.349117 0.0213472
RightFoot  4.30423 0.010995 0.113252
RightToes  -19.2196 -0.0749534 -0.166697
Spine  -3.09806 0.896935 -1.74923
Spine1  -6.22562 1.7363 -2.86111
HEad  -66.0506 -4.05046 12.2928
LeftShoulder1  -1.94126e-019 -3.10601e-018 -2.51263e-017
LeftArm  -9.29118 24.9374 -78.5351
LeftForeArm  33.5353 -14.3328 -2.43964
LeftHand  -0.372169 -0.836366 7.1363
RightShoulder  -4.96962e-017 0 -2.36833e-017
RightArm  -84.3401 18.6788 11.042
RightForeArm  163.269 43.6722 169.829
RightHand  -0.17691 -2.33728 -6.773
LeftUpLeg  -6.81335 -4.642 -2.52358
LeftLeg  0.315547 13.146 -0.766478
LeftFoot  5.40533 -0.0501052 1.40657
LeftToes  -12.0985 1.48347e-006 1.01831e-007
333
root  -9.74559 34.8764 -17.0054 -170.161 0.397842 179.767
RightUpLeg  -6.94224 -14.3872 4.22592
RightLeg  0.028039 -0.60143 0.0384555
RightFoot  4.33473 0.0121014 0.0966017
RightToes  -18.8094 -0.0738175 -0.165278
Spine  -3.05427 0.851027 -1.71878
Spine1  -6.13831 1.65138 -2.78904
HEad  -66.5348 -4.40711 12.1428
LeftShoulder1  -1.94126e-019 -3.10601e-018 -2.51263e-017
LeftArm  -8.77805 24.7774 -78.2616
LeftForeArm  33.7642 -14.4043 -2.45036
LeftHand  -0.372169 -0.87471 7.02335
RightShoulder  -4.96962e-017 0 -2.36833e-017
RightArm  -83.6687 18.8474 11.2983
RightForeArm  163.708 43.3608 169.958
RightHand  -0.176961 -2.36872 -6.82282
LeftUpLeg  -6.60576 -5.00615 -2.58288
LeftLeg  0.0528947 13.801 -0.866778
LeftFoot  5.47713 -0.0542078 1.49143
LeftToes  -11.6201 1.48347e-006 1.01831e-007
334
root  -9.7405 34.8793 -17.0091 -170.203 0.809769 179.785
RightUpLeg  -6.83254 -14.0162 4.22461
RightLeg  -0.14213 -0.596947 0.0398978
RightFoot  4.43996 0.0120788 0.0960031
RightToes  -18.4439 -0.0729551 -0.164194
Spine  -3.0305 0.928361 -1.66337
Spine1  -6.09146 1.81101 -2.67708
HEad  -66.5752 -4.48846 12.0637
LeftShoulder1  -1.94126e-019 -3.10601e-018 -2.51263e-017
LeftArm  -8.7691 24.4441 -78.1042
LeftForeArm  34.0742 -14.277 -2.44685
LeftHand  -0.375089 -0.941923 7.00813
RightShoulder  -4.96962e-017 0 -2.36833e-017
RightArm  -83.2958 18.7595 11.294
RightForeArm  163.734 43.1059 170.042
RightHand  -0.178293 -2.34643 -6.80886
LeftUpLeg  -6.5666 -4.57382 -2.63803
LeftLeg  0.1185 13.8679 -0.855122
LeftFoot  5.38078 -0.0518326 1.47482
LeftToes  -11.1207 1.48347e-006 1.01831e-007
